<svg width="32" height="32" viewBox="0 0 32 32" fill="none" xmlns="http://www.w3.org/2000/svg">
<path fill-rule="evenodd" clip-rule="evenodd" d="M26.285 20.7074C26.4117 20.6346 26.5171 20.5297 26.5905 20.4034C26.664 20.277 26.7029 20.1335 26.7033 19.9874L26.7183 15.1649C26.7188 15.0187 26.7577 14.8752 26.8311 14.7489C26.9045 14.6225 27.0099 14.5176 27.1367 14.4449L29.7508 12.9432C29.8775 12.8704 30.0211 12.8323 30.1672 12.8325C30.3133 12.8327 30.4568 12.8714 30.5833 12.9446C30.7097 13.0178 30.8147 13.1229 30.8877 13.2495C30.9607 13.3761 30.9991 13.5196 30.9992 13.6657V22.4332C30.9991 22.5798 30.9604 22.7238 30.887 22.8506C30.8136 22.9775 30.7079 23.0827 30.5808 23.1557L20.715 28.8224C20.589 28.8947 20.4462 28.9328 20.3009 28.933C20.1556 28.9331 20.0128 28.8953 19.8867 28.8232L12.1442 24.3949C12.0166 24.322 11.9106 24.2167 11.8368 24.0897C11.7631 23.9627 11.7242 23.8184 11.7242 23.6715V19.2507C11.7242 19.2457 11.73 19.2424 11.735 19.2449C11.7392 19.2474 11.745 19.2449 11.745 19.239V19.234C11.745 19.2307 11.7467 19.2274 11.75 19.2257L18.1267 15.5624C18.1325 15.559 18.13 15.5499 18.1233 15.5499C18.1216 15.5499 18.1199 15.5492 18.1186 15.5479C18.1174 15.5466 18.1167 15.545 18.1167 15.5432L18.1292 11.209C18.1297 11.0625 18.0917 10.9183 18.0188 10.7912C17.9459 10.664 17.8407 10.5584 17.7139 10.4848C17.5872 10.4113 17.4432 10.3725 17.2967 10.3724C17.1501 10.3722 17.0061 10.4107 16.8792 10.484L12.14 13.2149C12.0135 13.2877 11.8701 13.326 11.7242 13.326C11.5782 13.326 11.4348 13.2877 11.3083 13.2149L6.55417 10.4774C6.42751 10.4044 6.28389 10.3661 6.13774 10.3662C5.99158 10.3663 5.84802 10.4048 5.72147 10.4779C5.59491 10.5511 5.48981 10.6562 5.41671 10.7827C5.34362 10.9093 5.30509 11.0529 5.305 11.199V19.0324C5.3051 19.1784 5.26684 19.3218 5.19405 19.4484C5.12126 19.5749 5.01649 19.6802 4.89024 19.7535C4.76399 19.8268 4.62069 19.8657 4.47469 19.8662C4.32869 19.8668 4.18511 19.8289 4.05833 19.7565L1.42 18.2482C1.29221 18.1752 1.18603 18.0697 1.11226 17.9423C1.03849 17.815 0.999754 17.6704 1 17.5232L1.02333 3.83152C1.02365 3.68556 1.0623 3.54224 1.13542 3.41591C1.20853 3.28957 1.31355 3.18466 1.43995 3.11167C1.56636 3.03868 1.70971 3.00017 1.85568 3C2.00164 2.99983 2.14509 3.038 2.27167 3.11069L11.3092 8.30152C11.4355 8.37404 11.5785 8.41221 11.7242 8.41221C11.8698 8.41221 12.0129 8.37404 12.1392 8.30152L21.1742 3.11069C21.3009 3.03789 21.4446 2.99972 21.5908 3C21.737 3.00029 21.8805 3.03901 22.007 3.1123C22.1334 3.18559 22.2384 3.29085 22.3114 3.41753C22.3843 3.54421 22.4226 3.68784 22.4225 3.83402V17.529C22.4226 17.6755 22.384 17.8194 22.3107 17.9463C22.2374 18.0731 22.132 18.1784 22.005 18.2515L17.2733 20.9765C17.1462 21.0498 17.0407 21.1553 16.9675 21.2824C16.8943 21.4095 16.8559 21.5537 16.8562 21.7004C16.8565 21.8471 16.8956 21.9911 16.9694 22.1179C17.0433 22.2446 17.1492 22.3497 17.2767 22.4224L19.8867 23.9082C20.0128 23.98 20.1555 24.0176 20.3006 24.0173C20.4458 24.017 20.5883 23.9788 20.7142 23.9065L26.285 20.7074ZM26.8325 8.42235C26.8326 8.56973 26.8718 8.71443 26.9461 8.84172C27.0204 8.969 27.1271 9.07431 27.2553 9.14691C27.3836 9.2195 27.5288 9.25679 27.6761 9.25496C27.8235 9.25314 27.9678 9.21227 28.0942 9.13652L30.5942 7.63652C30.7176 7.56257 30.8197 7.45792 30.8907 7.33277C30.9617 7.20762 30.9991 7.06623 30.9992 6.92235V3.86569C30.9989 3.71839 30.9596 3.57379 30.8853 3.44662C30.8109 3.31945 30.7042 3.21426 30.576 3.14176C30.4478 3.06926 30.3026 3.03205 30.1553 3.03391C30.008 3.03577 29.8639 3.07664 29.7375 3.15235L27.2375 4.65235C27.1141 4.72631 27.0119 4.83095 26.9409 4.9561C26.87 5.08125 26.8326 5.22265 26.8325 5.36652V8.42319V8.42235Z" fill="#007FFF"/>
</svg>
