<svg width="32" height="32" viewBox="0 0 32 32" fill="none" xmlns="http://www.w3.org/2000/svg">
<g clip-path="url(#clip0_275_89634)">
<mask id="mask0_275_89634" style="mask-type:alpha" maskUnits="userSpaceOnUse" x="6" y="4" width="21" height="24">
<path d="M6 12.2832C5.9999 11.5891 6.18263 10.9072 6.52979 10.3061C6.87696 9.70501 7.37631 9.20598 7.9776 8.8592L14.4256 5.1392C15.0262 4.79263 15.7074 4.61019 16.4008 4.61019C17.0942 4.61019 17.7754 4.79263 18.376 5.1392L24.8224 8.8592C25.4237 9.20598 25.923 9.70501 26.2702 10.3061C26.6174 10.9072 26.8001 11.5891 26.8 12.2832V19.7168C26.8001 20.4109 26.6174 21.0928 26.2702 21.6939C25.923 22.295 25.4237 22.794 24.8224 23.1408L18.3744 26.8608C17.7738 27.2074 17.0926 27.3898 16.3992 27.3898C15.7058 27.3898 15.0246 27.2074 14.424 26.8608L7.9776 23.1408C7.37631 22.794 6.87696 22.295 6.52979 21.6939C6.18263 21.0928 5.9999 20.4109 6 19.7168V12.2832Z" fill="#ED64A6"/>
</mask>
<g mask="url(#mask0_275_89634)">
<path d="M6 10L16.4 16L26.8 10L16.4 4L6 10Z" fill="#80BFFF"/>
<path d="M16.4 16V28L26.8 22V10L16.4 16Z" fill="url(#paint0_linear_275_89634)"/>
<path d="M6 22L16.4 28V16L6 10V22Z" fill="#3399FF"/>
</g>
</g>
<defs>
<linearGradient id="paint0_linear_275_89634" x1="26.8" y1="27.9984" x2="11.2064" y2="18.9888" gradientUnits="userSpaceOnUse">
<stop stop-color="#0059B3"/>
<stop offset="1" stop-color="#007FFF"/>
</linearGradient>
<clipPath id="clip0_275_89634">
<rect width="20.8" height="24" fill="white" transform="translate(6 4)"/>
</clipPath>
</defs>
</svg>
