<svg width="20" height="20" viewBox="0 0 20 20" fill="none" xmlns="http://www.w3.org/2000/svg">
<path fill-rule="evenodd" clip-rule="evenodd" d="M16.4281 12.9421C16.5073 12.8966 16.5732 12.8311 16.6191 12.7521C16.665 12.6731 16.6893 12.5834 16.6896 12.4921L16.699 9.47803C16.6992 9.38669 16.7236 9.29702 16.7695 9.21804C16.8153 9.13905 16.8812 9.07353 16.9604 9.02803L18.5943 8.08949C18.6735 8.04402 18.7632 8.02016 18.8545 8.02031C18.9458 8.02047 19.0355 8.04463 19.1145 8.09037C19.1936 8.13611 19.2592 8.20183 19.3048 8.28093C19.3504 8.36003 19.3745 8.44974 19.3745 8.54105V14.0207C19.3745 14.1124 19.3503 14.2023 19.3044 14.2816C19.2585 14.3609 19.1925 14.4267 19.113 14.4723L12.9469 18.014C12.8681 18.0592 12.7789 18.083 12.6881 18.0831C12.5973 18.0832 12.508 18.0595 12.4292 18.0145L7.5901 15.2468C7.51039 15.2013 7.44413 15.1355 7.39803 15.0561C7.35193 14.9767 7.32763 14.8865 7.3276 14.7947V12.0317C7.3276 12.0286 7.33125 12.0265 7.33438 12.028C7.33698 12.0296 7.34063 12.028 7.34063 12.0244V12.0213C7.34063 12.0192 7.34167 12.0171 7.34375 12.0161L11.3292 9.72647C11.3328 9.72439 11.3313 9.71866 11.3271 9.71866C11.326 9.71866 11.3249 9.71822 11.3241 9.71744C11.3234 9.71666 11.3229 9.7156 11.3229 9.71449L11.3307 7.00564C11.3311 6.91404 11.3073 6.82396 11.2617 6.7445C11.2162 6.66503 11.1504 6.59899 11.0712 6.55303C10.992 6.50707 10.902 6.48282 10.8104 6.48273C10.7188 6.48264 10.6288 6.50671 10.5495 6.55251L7.5875 8.25928C7.50845 8.3048 7.41883 8.32876 7.3276 8.32876C7.23638 8.32876 7.14676 8.3048 7.06771 8.25928L4.09635 6.54835C4.01719 6.50276 3.92743 6.4788 3.83609 6.47887C3.74474 6.47893 3.65501 6.50302 3.57592 6.54872C3.49682 6.59441 3.43113 6.66011 3.38545 6.73921C3.33976 6.81831 3.31568 6.90804 3.31563 6.99939V11.8952C3.31569 11.9865 3.29177 12.0761 3.24628 12.1552C3.20078 12.2343 3.13531 12.3001 3.0564 12.3459C2.9775 12.3918 2.88793 12.4161 2.79668 12.4164C2.70543 12.4167 2.61569 12.3931 2.53646 12.3478L0.887501 11.4051C0.807631 11.3595 0.741269 11.2935 0.695161 11.2139C0.649054 11.1344 0.624847 11.044 0.625001 10.952L0.639584 2.3947C0.639783 2.30347 0.663939 2.2139 0.709636 2.13494C0.755333 2.05598 0.820968 1.99041 0.89997 1.9448C0.978973 1.89918 1.06857 1.87511 1.1598 1.875C1.25103 1.87489 1.34068 1.89875 1.41979 1.94418L7.06823 5.18845C7.14716 5.23378 7.23659 5.25763 7.3276 5.25763C7.41862 5.25763 7.50805 5.23378 7.58698 5.18845L13.2339 1.94418C13.3131 1.89868 13.4029 1.87482 13.4942 1.875C13.5856 1.87518 13.6753 1.89938 13.7544 1.94519C13.8334 1.99099 13.899 2.05678 13.9446 2.13596C13.9902 2.21513 14.0141 2.3049 14.0141 2.39626V10.9556C14.0141 11.0472 13.99 11.1372 13.9442 11.2164C13.8984 11.2957 13.8325 11.3615 13.7531 11.4072L10.7958 13.1103C10.7164 13.1561 10.6505 13.2221 10.6047 13.3015C10.5589 13.3809 10.5349 13.4711 10.5351 13.5628C10.5353 13.6544 10.5597 13.7444 10.6059 13.8237C10.652 13.9029 10.7183 13.9685 10.7979 14.014L12.4292 14.9426C12.508 14.9875 12.5972 15.011 12.6879 15.0108C12.7786 15.0106 12.8677 14.9868 12.9464 14.9416L16.4281 12.9421ZM16.7703 5.26397C16.7704 5.35608 16.7949 5.44652 16.8413 5.52607C16.8877 5.60563 16.9544 5.67144 17.0346 5.71682C17.1147 5.76219 17.2055 5.78549 17.2976 5.78435C17.3897 5.78321 17.4798 5.75767 17.5589 5.71033L19.1214 4.77283C19.1985 4.72661 19.2623 4.6612 19.3067 4.58298C19.3511 4.50476 19.3744 4.41639 19.3745 4.32647V2.41605C19.3743 2.32399 19.3497 2.23362 19.3033 2.15414C19.2568 2.07466 19.1901 2.00891 19.11 1.9636C19.0298 1.91829 18.9391 1.89503 18.8471 1.89619C18.755 1.89736 18.6649 1.9229 18.5859 1.97022L17.0234 2.90772C16.9463 2.95394 16.8825 3.01934 16.8381 3.09756C16.7937 3.17578 16.7704 3.26415 16.7703 3.35408V5.26449V5.26397Z" fill="#57616B"/>
</svg>
