<svg width="33" height="36" viewBox="0 0 33 36" fill="none" xmlns="http://www.w3.org/2000/svg">
<path d="M15 2C17.1011 2 19.1817 2.41385 21.1229 3.21793C23.0641 4.022 24.828 5.20055 26.3137 6.68629C27.7994 8.17203 28.978 9.93586 29.7821 11.8771C30.5861 13.8183 31 15.8989 31 18C31 20.1012 30.5861 22.1817 29.7821 24.1229C28.978 26.0641 27.7994 27.828 26.3137 29.3137C24.828 30.7995 23.0641 31.978 21.1229 32.7821C19.1817 33.5861 17.1011 34 15 34C12.8988 34 10.8183 33.5861 8.87705 32.7821C6.93584 31.978 5.17202 30.7994 3.68628 29.3137" stroke="#3C4249" stroke-width="4" stroke-linecap="square" stroke-linejoin="round"/>
</svg>
