<svg width="20" height="14" viewBox="0 0 20 14" fill="none" xmlns="http://www.w3.org/2000/svg">
<path fill-rule="evenodd" clip-rule="evenodd" d="M15.6667 2.05755C17.3262 3.24164 18.6024 4.88603 19.3375 6.7875C19.3871 6.92482 19.3871 7.07518 19.3375 7.2125C18.6024 9.11397 17.3262 10.7584 15.6667 11.9424C14.0072 13.1265 12.0372 13.7984 9.99998 13.875C7.9628 13.7984 5.99272 13.1265 4.33323 11.9424C2.67374 10.7584 1.39758 9.11397 0.662478 7.2125C0.612833 7.07518 0.612833 6.92482 0.662478 6.7875C1.39758 4.88603 2.67374 3.24164 4.33323 2.05755C5.99272 0.873472 7.9628 0.201608 9.99998 0.125C12.0372 0.201608 14.0072 0.873472 15.6667 2.05755ZM7.74297 10.3778C8.41105 10.8242 9.19649 11.0625 9.99998 11.0625C11.0769 11.0608 12.1093 10.6323 12.8708 9.8708C13.6323 9.10929 14.0608 8.07693 14.0625 7C14.0625 6.19651 13.8242 5.41107 13.3778 4.743C12.9314 4.07492 12.297 3.55422 11.5546 3.24674C10.8123 2.93926 9.99547 2.85881 9.20742 3.01556C8.41938 3.17231 7.69551 3.55923 7.12736 4.12738C6.55921 4.69553 6.17229 5.4194 6.01554 6.20745C5.85879 6.99549 5.93924 7.81233 6.24672 8.55465C6.5542 9.29698 7.0749 9.93145 7.74297 10.3778ZM12.5 7C12.5 8.38071 11.3807 9.5 9.99998 9.5C8.61927 9.5 7.49998 8.38071 7.49998 7C7.49998 5.61929 8.61927 4.5 9.99998 4.5C11.3807 4.5 12.5 5.61929 12.5 7Z" fill="#1E2124" fill-opacity="0.56"/>
</svg>
