<svg width="16" height="11" viewBox="0 0 16 11" fill="none" xmlns="http://www.w3.org/2000/svg">
<path fill-rule="evenodd" clip-rule="evenodd" d="M9.25 11H8L6.94194 7.875H2.8085L1.75 11H0.5L4.25 0.375H5.5L9.25 11ZM4.79231 2.01806L3.23194 6.625H6.51875L4.95906 2.01838L4.79231 2.01806ZM10.5 3.5H13.625C14.1221 3.50055 14.5987 3.69827 14.9502 4.04978C15.3017 4.40129 15.4995 4.87789 15.5 5.375V11H11.75C11.2529 10.9995 10.7763 10.8017 10.4248 10.4502C10.0733 10.0987 9.87555 9.62211 9.875 9.125V8.5C9.87555 8.00289 10.0733 7.52629 10.4248 7.17478C10.7763 6.82327 11.2529 6.62555 11.75 6.625H14.25V5.375C14.2499 5.20928 14.184 5.05039 14.0668 4.9332C13.9496 4.81602 13.7907 4.75013 13.625 4.75H10.5V3.5ZM11.3082 9.5668C11.4254 9.68398 11.5843 9.74987 11.75 9.75H14.25V7.875H11.75C11.5843 7.87513 11.4254 7.94102 11.3082 8.0582C11.191 8.17539 11.1251 8.33428 11.125 8.5V9.125C11.1251 9.29072 11.191 9.44961 11.3082 9.5668Z" fill="#1E2124" fill-opacity="0.56"/>
</svg>
