<svg width="12" height="9" viewBox="0 0 12 9" fill="none" xmlns="http://www.w3.org/2000/svg">
<path fill-rule="evenodd" clip-rule="evenodd" d="M7 9H6L5.15355 6.5H1.8468L1 9H0L3 0.5H4L7 9ZM3.43385 1.81445L2.18555 5.5H4.815L3.56725 1.8147L3.43385 1.81445ZM8 3H10.5C10.8977 3.00044 11.279 3.15861 11.5602 3.43982C11.8414 3.72103 11.9996 4.10231 12 4.5V9H9C8.60231 8.99956 8.22103 8.84139 7.93982 8.56018C7.65861 8.27897 7.50044 7.89769 7.5 7.5V7C7.50044 6.60231 7.65861 6.22103 7.93982 5.93982C8.22103 5.65861 8.60231 5.50044 9 5.5H11V4.5C10.9999 4.36742 10.9472 4.24031 10.8534 4.14656C10.7597 4.05282 10.6326 4.00011 10.5 4H8V3ZM8.64656 7.85344C8.74031 7.94718 8.86742 7.99989 9 8H11V6.5H9C8.86742 6.50011 8.74031 6.55282 8.64656 6.64656C8.55282 6.74031 8.50011 6.86742 8.5 7V7.5C8.50011 7.63258 8.55282 7.75969 8.64656 7.85344Z" fill="black"/>
</svg>
